<?xml version="1.0" standalone="no"?>
<!DOCTYPE svg PUBLIC "-//W3C//DTD SVG 20010904//EN"
 "http://www.w3.org/TR/2001/REC-SVG-20010904/DTD/svg10.dtd">
<svg version="1.0" xmlns="http://www.w3.org/2000/svg"
 width="512.000000pt" height="512.000000pt" viewBox="0 0 512.000000 512.000000"
 preserveAspectRatio="xMidYMid meet">
<metadata>
Created by potrace 1.14, written by Peter Selinger 2001-2017
</metadata>
<g transform="translate(0.000000,512.000000) scale(0.100000,-0.100000)"
fill="#000000" stroke="none">
<path d="M0 2560 l0 -2560 2560 0 2560 0 0 2560 0 2560 -2560 0 -2560 0 0
-2560z m4125 0 l0 -1545 -1570 0 -1570 0 -3 1535 c-1 844 0 1541 3 1548 3 10
323 12 1572 10 l1568 -3 0 -1545z"/>
<path d="M2865 3199 c-233 -26 -443 -112 -588 -239 -161 -142 -293 -443 -314
-717 l-6 -83 104 0 c348 1 648 109 814 292 148 163 263 451 268 668 l2 85
-100 1 c-55 1 -136 -2 -180 -7z"/>
</g>
</svg>
